<?xml version="1.0" standalone="no"?>
<!DOCTYPE svg PUBLIC "-//W3C//DTD SVG 20010904//EN"
 "http://www.w3.org/TR/2001/REC-SVG-20010904/DTD/svg10.dtd">
<svg version="1.0" xmlns="http://www.w3.org/2000/svg"
 width="500.000000pt" height="500.000000pt" viewBox="0 0 500.000000 500.000000"
 preserveAspectRatio="xMidYMid meet">

<g transform="translate(0.000000,500.000000) scale(0.100000,-0.100000)"
fill="#000000" stroke="none">
<path d="M2360 4133 c-94 -10 -265 -48 -372 -83 -514 -169 -869 -562 -984
-1090 -15 -69 -19 -128 -19 -305 0 -194 3 -232 23 -324 80 -355 262 -639 547
-854 103 -78 307 -182 441 -226 537 -176 1242 -78 1752 242 l82 52 0 627 0
628 -478 0 -477 0 1 -344 c1 -189 -1 -348 -5 -354 -15 -24 -135 -46 -251 -45
-98 0 -127 4 -194 27 -242 83 -368 277 -369 566 0 191 46 328 148 439 101 109
237 161 424 161 216 0 364 -68 528 -244 39 -42 74 -76 78 -76 5 0 104 86 360
311 17 15 93 82 170 149 77 67 146 128 154 136 17 16 1 36 -130 170 -236 241
-550 385 -939 434 -78 9 -409 12 -490 3z"/>
<path d="M2396 2826 c-51 -19 -92 -60 -112 -113 -45 -116 44 -243 170 -243 80
0 131 31 168 104 71 138 -79 306 -226 252z"/>
</g>
</svg>
